# xmcd
#
# Track frame offsets:
#	150
#	17356
#	35470
#	52208
#	67349
#	82521
#	97302
#	112245
#	125491
#	139974
#	160070
#	174420
#	189724
#	204563
#	221602
#	234338
#	246783
#	266543
#
# Disc length: 3737 seconds
#
# Revision: 0
# Processed by: cddbd v1.5.1PL0 Copyright (c) Steve Scherf et al.
# Submitted via: dBpowerAMP V4.0
#
DISCID=080e9712
DTITLE=the line backers - get on line
DYEAR=1900
DGENRE=line dancin
TTITLE0=ilike it, i love it
TTITLE1=good girls love bad boys
TTITLE2=sea cruise
TTITLE3=closer to the light
TTITLE4=cotton-eyed joe
TTITLE5=the wanderer
TTITLE6=achy breaky heart
TTITLE7=hanging on to my dreams
TTITLE8=he's the man
TTITLE9=swamp thing
TTITLE10=busted
TTITLE11=hi flyin'woman
TTITLE12=boot scootin' boogie
TTITLE13=chattahoochee
TTITLE14=wait for me
TTITLE15=honky tonk man
TTITLE16=feuer
TTITLE17=get on the line
EXTD=
EXTT0=
EXTT1=
EXTT2=
EXTT3=
EXTT4=
EXTT5=
EXTT6=
EXTT7=
EXTT8=
EXTT9=
EXTT10=
EXTT11=
EXTT12=
EXTT13=
EXTT14=
EXTT15=
EXTT16=
EXTT17=
PLAYORDER=
